<?xml version="1.0" encoding="UTF-8" ?>
<!DOCTYPE svg PUBLIC "-//W3C//DTD SVG 1.1//EN" "http://www.w3.org/Graphics/SVG/1.1/DTD/svg11.dtd">
<svg width="366pt" height="269pt" viewBox="0 0 366 269" version="1.1" xmlns="http://www.w3.org/2000/svg">
<g id="#ebf5f7ff">
<path fill="#ebf5f7" opacity="1.00" d=" M 0.00 0.00 L 366.00 0.00 L 366.00 269.00 L 0.00 269.00 L 0.00 0.00 M 217.98 56.11 C 218.15 73.69 217.68 91.28 218.12 108.86 C 215.53 108.63 212.94 108.92 210.36 108.88 C 210.06 98.25 210.31 87.61 210.21 76.97 C 210.24 75.48 209.90 74.02 209.51 72.60 C 204.53 73.25 199.34 71.93 194.52 73.57 C 194.85 85.14 194.46 96.73 194.75 108.30 C 192.09 108.83 189.38 108.73 186.70 108.54 C 186.78 93.14 186.75 77.75 186.70 62.36 C 181.62 62.21 176.54 62.20 171.46 62.41 C 171.52 77.82 171.52 93.24 171.50 108.66 C 168.88 108.69 166.26 108.67 163.64 108.59 C 163.57 99.60 163.90 90.59 163.46 81.61 C 158.48 81.66 153.49 81.75 148.51 81.55 C 148.04 90.64 148.34 99.77 148.35 108.87 C 145.68 108.84 143.02 108.82 140.36 108.95 C 140.38 95.59 140.43 82.22 140.33 68.86 C 135.28 68.85 130.22 68.88 125.17 68.85 C 124.65 82.14 125.01 95.46 124.97 108.76 C 128.86 108.72 132.74 108.85 136.62 109.05 C 136.60 111.79 136.59 114.53 136.58 117.27 C 136.54 125.89 136.51 134.51 136.60 143.13 C 141.67 143.34 146.75 143.30 151.82 143.18 C 152.58 134.14 151.82 125.09 151.90 116.04 C 151.98 113.64 151.98 111.24 151.96 108.84 C 154.58 108.79 157.20 108.79 159.83 108.89 C 159.83 110.98 159.84 113.08 159.85 115.18 C 159.85 120.82 159.54 126.47 160.02 132.10 C 165.17 132.07 170.45 132.80 175.52 131.56 C 175.18 125.71 175.51 119.85 175.27 114.00 C 175.27 112.26 175.28 110.52 175.29 108.78 C 177.84 108.71 180.39 108.77 182.94 108.82 C 182.98 110.34 183.02 111.86 183.08 113.38 C 183.25 121.96 183.06 130.55 183.19 139.13 C 188.26 139.14 193.33 139.11 198.39 139.16 C 198.59 130.13 198.41 121.09 198.50 112.06 C 198.55 110.98 198.60 109.90 198.65 108.82 C 201.19 108.74 203.74 108.74 206.28 108.82 C 206.29 109.43 206.31 110.66 206.31 111.28 C 206.34 116.36 206.27 121.44 206.43 126.52 C 211.51 126.48 216.60 126.48 221.68 126.50 C 221.77 120.84 221.62 115.17 221.80 109.51 C 224.22 108.69 227.09 108.27 229.49 109.23 C 229.88 117.73 229.35 126.26 229.71 134.76 C 234.78 134.69 239.86 134.77 244.93 134.72 C 245.15 126.08 245.24 117.42 244.85 108.79 C 241.04 108.84 237.23 108.83 233.43 108.75 C 233.39 91.20 233.47 73.66 233.40 56.12 C 228.26 56.08 223.12 56.05 217.98 56.11 M 186.30 166.31 C 184.00 167.78 186.00 171.83 188.61 170.53 C 192.25 169.61 188.92 163.90 186.30 166.31 M 252.77 166.43 C 252.81 177.95 252.80 189.47 252.77 200.99 C 254.06 200.98 255.35 200.97 256.64 200.97 C 256.61 189.42 256.65 177.88 256.62 166.33 C 255.33 166.36 254.05 166.39 252.77 166.43 M 40.78 168.03 C 40.79 179.01 40.79 189.99 40.79 200.98 C 47.09 200.84 53.92 201.96 59.67 198.72 C 69.34 192.99 69.86 176.84 60.26 170.79 C 54.50 166.91 47.30 168.18 40.78 168.03 M 149.84 167.98 C 153.59 178.99 157.25 190.02 161.04 201.01 C 162.66 201.00 164.29 200.99 165.91 200.98 C 169.63 189.94 173.58 178.97 177.38 167.96 C 175.99 167.99 174.60 168.03 173.21 168.08 C 169.85 177.81 166.77 187.63 163.45 197.37 C 160.33 187.57 157.26 177.75 153.97 168.02 C 152.59 168.00 151.21 167.99 149.84 167.98 M 222.80 168.02 C 222.79 179.02 222.78 190.02 222.81 201.02 C 224.07 201.01 225.35 201.01 226.62 201.00 C 226.62 196.88 226.62 192.75 226.64 188.63 C 231.36 188.58 236.97 189.40 240.62 185.67 C 245.36 181.59 244.44 172.98 238.99 169.96 C 234.11 167.04 228.19 168.22 222.80 168.02 M 105.00 169.99 C 104.99 172.11 104.98 174.24 104.98 176.37 C 103.63 176.37 102.28 176.37 100.92 176.37 C 100.97 177.09 101.05 178.52 101.09 179.24 C 102.38 179.20 103.67 179.17 104.97 179.15 C 105.39 185.21 104.24 191.44 105.72 197.39 C 107.24 201.36 112.23 201.73 115.79 200.68 C 115.90 199.45 116.01 198.22 116.12 196.99 C 113.90 197.86 110.42 198.68 109.21 195.92 C 108.68 190.36 109.16 184.76 109.01 179.18 C 111.19 179.20 113.37 179.21 115.54 179.26 C 115.59 178.30 115.64 177.33 115.69 176.36 C 113.47 176.37 111.25 176.37 109.03 176.37 C 109.02 174.25 109.02 172.13 109.02 170.02 C 107.67 170.00 106.33 169.99 105.00 169.99 M 77.19 176.98 C 75.35 177.47 76.24 179.88 75.89 181.23 C 79.23 179.62 83.36 178.16 86.89 180.02 C 89.12 181.42 88.90 184.31 89.07 186.60 C 85.13 186.67 80.83 186.10 77.32 188.30 C 73.11 190.85 73.56 198.02 77.95 200.17 C 81.53 202.18 86.28 201.30 88.93 198.18 C 88.95 198.89 89.00 200.29 89.02 200.99 C 90.22 200.99 91.43 200.98 92.63 200.98 C 92.58 195.37 92.70 189.76 92.61 184.15 C 92.63 181.37 91.46 178.38 88.90 177.03 C 85.30 175.10 80.90 175.63 77.19 176.98 M 125.36 177.31 C 125.03 178.58 124.88 179.89 124.89 181.22 C 128.26 179.56 132.39 178.21 135.98 180.01 C 138.08 181.55 137.96 184.32 138.05 186.64 C 133.93 186.66 129.26 186.02 125.76 188.70 C 121.90 191.72 122.95 198.76 127.57 200.46 C 131.09 202.12 135.41 201.08 137.96 198.20 C 137.97 198.90 137.98 200.32 137.99 201.02 C 139.23 200.98 140.47 200.94 141.71 200.90 C 141.53 195.28 141.70 189.67 141.62 184.05 C 141.67 181.10 140.16 177.99 137.38 176.75 C 133.55 175.11 129.10 175.70 125.36 177.31 M 185.72 176.45 C 185.92 184.63 185.72 192.81 185.81 200.99 C 187.09 200.98 188.37 200.98 189.65 200.98 C 189.62 192.76 189.61 184.54 189.65 176.32 C 188.34 176.36 187.03 176.40 185.72 176.45 M 203.39 176.57 C 199.80 177.63 197.48 182.11 199.49 185.50 C 201.58 189.74 207.39 189.41 210.19 192.92 C 211.49 194.71 210.13 197.42 208.02 197.78 C 204.93 198.45 201.80 197.50 198.98 196.27 C 198.97 197.49 198.97 198.71 198.98 199.93 C 202.85 201.13 207.27 202.07 211.08 200.15 C 214.44 198.49 215.50 193.76 213.29 190.78 C 210.81 187.53 206.20 187.32 203.34 184.59 C 201.59 182.96 202.99 179.98 205.07 179.45 C 207.77 178.74 210.52 179.58 213.08 180.44 C 213.04 179.55 212.98 177.78 212.95 176.90 C 209.83 176.15 206.50 175.40 203.39 176.57 M 266.35 176.36 C 266.54 182.77 266.04 189.22 266.63 195.62 C 268.13 202.65 278.84 203.05 281.96 196.99 C 281.97 198.33 281.99 199.66 282.02 201.00 C 283.35 200.99 284.68 200.99 286.01 200.98 C 285.97 192.77 286.07 184.57 285.97 176.36 C 284.65 176.35 283.35 176.35 282.04 176.35 C 281.65 182.07 282.70 187.94 281.46 193.56 C 280.24 198.33 272.19 199.71 270.42 194.73 C 269.90 188.64 270.33 182.48 270.20 176.37 C 268.92 176.36 267.63 176.36 266.35 176.36 M 297.97 177.97 C 294.83 180.34 295.18 185.57 298.34 187.75 C 301.40 189.75 305.24 190.50 307.73 193.36 C 307.74 195.01 307.37 196.85 305.66 197.57 C 302.41 198.63 298.98 197.54 295.99 196.21 C 295.98 197.45 295.98 198.69 295.98 199.93 C 299.84 201.11 304.28 202.11 308.06 200.15 C 311.66 198.44 312.61 193.09 309.84 190.24 C 307.25 187.44 303.01 187.19 300.32 184.57 C 298.83 183.14 299.69 180.53 301.43 179.72 C 304.22 178.46 307.31 179.59 310.04 180.43 C 310.03 179.56 310.01 177.81 309.99 176.93 C 306.08 175.86 301.31 175.10 297.97 177.97 Z" />
<path fill="#ebf5f7" opacity="1.00" d=" M 44.64 171.41 C 48.99 171.34 53.75 170.85 57.57 173.40 C 64.85 178.06 64.95 190.02 58.40 195.33 C 54.46 198.31 49.25 197.59 44.63 197.57 C 44.62 188.85 44.63 180.13 44.64 171.41 Z" />
<path fill="#ebf5f7" opacity="1.00" d=" M 226.62 171.19 C 230.16 171.34 234.17 170.69 237.22 172.91 C 240.46 175.42 240.87 180.87 237.65 183.58 C 234.64 186.26 230.32 185.56 226.62 185.61 C 226.62 180.80 226.62 175.99 226.62 171.19 Z" />
<path fill="#ebf5f7" opacity="1.00" d=" M 79.80 190.77 C 82.50 188.86 85.96 189.43 89.06 189.39 C 88.90 191.58 89.30 194.01 88.06 195.97 C 86.38 198.01 83.43 198.35 81.00 197.77 C 78.08 196.97 77.27 192.50 79.80 190.77 Z" />
<path fill="#ebf5f7" opacity="1.00" d=" M 127.37 193.15 C 128.53 188.57 134.40 189.42 138.01 189.36 C 137.94 192.11 138.47 195.97 135.37 197.32 C 132.19 199.18 126.47 197.61 127.37 193.15 Z" />
</g>
<g id="#5dbab2ff">
<path fill="#5dbab2" opacity="1.00" d=" M 217.98 56.11 C 223.12 56.05 228.26 56.08 233.40 56.12 C 233.47 73.66 233.39 91.20 233.43 108.75 C 237.23 108.83 241.04 108.84 244.85 108.79 C 245.24 117.42 245.15 126.08 244.93 134.72 C 239.86 134.77 234.78 134.69 229.71 134.76 C 229.35 126.26 229.88 117.73 229.49 109.23 C 227.09 108.27 224.22 108.69 221.80 109.51 L 221.40 109.59 C 220.30 109.34 219.21 109.10 218.12 108.86 C 217.68 91.28 218.15 73.69 217.98 56.11 Z" />
<path fill="#5dbab2" opacity="1.00" d=" M 125.17 68.85 C 130.22 68.88 135.28 68.85 140.33 68.86 C 140.43 82.22 140.38 95.59 140.36 108.95 C 139.42 108.97 137.55 109.02 136.62 109.05 C 132.74 108.85 128.86 108.72 124.97 108.76 C 125.01 95.46 124.65 82.14 125.17 68.85 Z" />
<path fill="#5dbab2" opacity="1.00" d=" M 183.08 113.38 C 188.23 113.02 193.36 112.54 198.50 112.06 C 198.41 121.09 198.59 130.13 198.39 139.16 C 193.33 139.11 188.26 139.14 183.19 139.13 C 183.06 130.55 183.25 121.96 183.08 113.38 Z" />
</g>
<g id="#84e5deff">
<path fill="#84e5de" opacity="1.00" d=" M 171.46 62.41 C 176.54 62.20 181.62 62.21 186.70 62.36 C 186.75 77.75 186.78 93.14 186.70 108.54 C 189.38 108.73 192.09 108.83 194.75 108.30 C 194.46 96.73 194.85 85.14 194.52 73.57 C 199.34 71.93 204.53 73.25 209.51 72.60 C 209.90 74.02 210.24 75.48 210.21 76.97 C 210.31 87.61 210.06 98.25 210.36 108.88 C 209.00 108.87 207.64 108.84 206.28 108.82 C 203.74 108.74 201.19 108.74 198.65 108.82 C 193.41 108.96 188.18 108.91 182.94 108.82 C 180.39 108.77 177.84 108.71 175.29 108.78 C 171.40 108.91 167.52 109.06 163.64 109.00 L 163.64 108.59 C 166.26 108.67 168.88 108.69 171.50 108.66 C 171.52 93.24 171.52 77.82 171.46 62.41 Z" />
<path fill="#84e5de" opacity="1.00" d=" M 159.85 115.18 C 164.99 114.78 170.13 114.35 175.27 114.00 C 175.51 119.85 175.18 125.71 175.52 131.56 C 170.45 132.80 165.17 132.07 160.02 132.10 C 159.54 126.47 159.85 120.82 159.85 115.18 Z" />
<path fill="#84e5de" opacity="1.00" d=" M 136.58 117.27 C 141.68 116.81 146.78 116.32 151.90 116.04 C 151.82 125.09 152.58 134.14 151.82 143.18 C 146.75 143.30 141.67 143.34 136.60 143.13 C 136.51 134.51 136.54 125.89 136.58 117.27 Z" />
</g>
<g id="#76cec8ff">
<path fill="#76cec8" opacity="1.00" d=" M 148.35 108.87 C 148.34 99.77 148.04 90.64 148.51 81.55 C 153.49 81.75 158.48 81.66 163.46 81.61 C 163.90 90.59 163.57 99.60 163.64 108.59 L 163.64 109.00 C 162.36 108.97 161.09 108.93 159.83 108.89 C 157.20 108.79 154.58 108.79 151.96 108.84 C 150.76 108.86 149.55 108.87 148.35 108.87 Z" />
<path fill="#76cec8" opacity="1.00" d=" M 206.31 111.28 C 211.35 110.82 216.45 110.73 221.40 109.59 L 221.80 109.51 C 221.62 115.17 221.77 120.84 221.68 126.50 C 216.60 126.48 211.51 126.48 206.43 126.52 C 206.27 121.44 206.34 116.36 206.31 111.28 Z" />
</g>
<g id="#4d8782ff">
<path fill="#4d8782" opacity="1.00" d=" M 136.62 109.05 C 137.55 109.02 139.42 108.97 140.36 108.95 C 143.02 108.82 145.68 108.84 148.35 108.87 C 149.55 108.87 150.76 108.86 151.96 108.84 C 151.98 111.24 151.98 113.64 151.90 116.04 C 146.78 116.32 141.68 116.81 136.58 117.27 C 136.59 114.53 136.60 111.79 136.62 109.05 Z" />
<path fill="#4d8782" opacity="1.00" d=" M 159.83 108.89 C 161.09 108.93 162.36 108.97 163.64 109.00 C 167.52 109.06 171.40 108.91 175.29 108.78 C 175.28 110.52 175.27 112.26 175.27 114.00 C 170.13 114.35 164.99 114.78 159.85 115.18 C 159.84 113.08 159.83 110.98 159.83 108.89 Z" />
<path fill="#4d8782" opacity="1.00" d=" M 182.94 108.82 C 188.18 108.91 193.41 108.96 198.65 108.82 C 198.60 109.90 198.55 110.98 198.50 112.06 C 193.36 112.54 188.23 113.02 183.08 113.38 C 183.02 111.86 182.98 110.34 182.94 108.82 Z" />
<path fill="#4d8782" opacity="1.00" d=" M 206.28 108.82 C 207.64 108.84 209.00 108.87 210.36 108.88 C 212.94 108.92 215.53 108.63 218.12 108.86 C 219.21 109.10 220.30 109.34 221.40 109.59 C 216.45 110.73 211.35 110.82 206.31 111.28 C 206.31 110.66 206.29 109.43 206.28 108.82 Z" />
</g>
<g id="#124943ff">
<path fill="#124943" opacity="1.00" d=" M 186.30 166.31 C 188.92 163.90 192.25 169.61 188.61 170.53 C 186.00 171.83 184.00 167.78 186.30 166.31 Z" />
<path fill="#124943" opacity="1.00" d=" M 252.77 166.43 C 254.05 166.39 255.33 166.36 256.62 166.33 C 256.65 177.88 256.61 189.42 256.64 200.97 C 255.35 200.97 254.06 200.98 252.77 200.99 C 252.80 189.47 252.81 177.95 252.77 166.43 Z" />
<path fill="#124943" opacity="1.00" d=" M 40.78 168.03 C 47.30 168.18 54.50 166.91 60.26 170.79 C 69.86 176.84 69.34 192.99 59.67 198.72 C 53.92 201.96 47.09 200.84 40.79 200.98 C 40.79 189.99 40.79 179.01 40.78 168.03 M 44.64 171.41 C 44.63 180.13 44.62 188.85 44.63 197.57 C 49.25 197.59 54.46 198.31 58.40 195.33 C 64.95 190.02 64.85 178.06 57.57 173.40 C 53.75 170.85 48.99 171.34 44.64 171.41 Z" />
<path fill="#124943" opacity="1.00" d=" M 149.84 167.98 C 151.21 167.99 152.59 168.00 153.97 168.02 C 157.26 177.75 160.33 187.57 163.45 197.37 C 166.77 187.63 169.85 177.81 173.21 168.08 C 174.60 168.03 175.99 167.99 177.38 167.96 C 173.58 178.97 169.63 189.94 165.91 200.98 C 164.29 200.99 162.66 201.00 161.04 201.01 C 157.25 190.02 153.59 178.99 149.84 167.98 Z" />
<path fill="#124943" opacity="1.00" d=" M 222.80 168.02 C 228.19 168.22 234.11 167.04 238.99 169.96 C 244.44 172.98 245.36 181.59 240.62 185.67 C 236.97 189.40 231.36 188.58 226.64 188.63 C 226.62 192.75 226.62 196.88 226.62 201.00 C 225.35 201.01 224.07 201.01 222.81 201.02 C 222.78 190.02 222.79 179.02 222.80 168.02 M 226.62 171.19 C 226.62 175.99 226.62 180.80 226.62 185.61 C 230.32 185.56 234.64 186.26 237.65 183.58 C 240.87 180.87 240.46 175.42 237.22 172.91 C 234.17 170.69 230.16 171.34 226.62 171.19 Z" />
<path fill="#124943" opacity="1.00" d=" M 105.00 169.99 C 106.33 169.99 107.67 170.00 109.02 170.02 C 109.02 172.13 109.02 174.25 109.03 176.37 C 111.25 176.37 113.47 176.37 115.69 176.36 C 115.64 177.33 115.59 178.30 115.54 179.26 C 113.37 179.21 111.19 179.20 109.01 179.18 C 109.16 184.76 108.68 190.36 109.21 195.92 C 110.42 198.68 113.90 197.86 116.12 196.99 C 116.01 198.22 115.90 199.45 115.79 200.68 C 112.23 201.73 107.24 201.36 105.72 197.39 C 104.24 191.44 105.39 185.21 104.97 179.15 C 103.67 179.17 102.38 179.20 101.09 179.24 C 101.05 178.52 100.97 177.09 100.92 176.37 C 102.28 176.37 103.63 176.37 104.98 176.37 C 104.98 174.24 104.99 172.11 105.00 169.99 Z" />
<path fill="#124943" opacity="1.00" d=" M 77.19 176.98 C 80.90 175.63 85.30 175.10 88.90 177.03 C 91.46 178.38 92.63 181.37 92.61 184.15 C 92.70 189.76 92.58 195.37 92.63 200.98 C 91.43 200.98 90.22 200.99 89.02 200.99 C 89.00 200.29 88.95 198.89 88.93 198.18 C 86.28 201.30 81.53 202.18 77.95 200.17 C 73.56 198.02 73.11 190.85 77.32 188.30 C 80.83 186.10 85.13 186.67 89.07 186.60 C 88.90 184.31 89.12 181.42 86.89 180.02 C 83.36 178.16 79.23 179.62 75.89 181.23 C 76.24 179.88 75.35 177.47 77.19 176.98 M 79.80 190.77 C 77.27 192.50 78.08 196.97 81.00 197.77 C 83.43 198.35 86.38 198.01 88.06 195.97 C 89.30 194.01 88.90 191.58 89.06 189.39 C 85.96 189.43 82.50 188.86 79.80 190.77 Z" />
<path fill="#124943" opacity="1.00" d=" M 125.36 177.31 C 129.10 175.70 133.55 175.11 137.38 176.75 C 140.16 177.99 141.67 181.10 141.62 184.05 C 141.70 189.67 141.53 195.28 141.71 200.90 C 140.47 200.94 139.23 200.98 137.99 201.02 C 137.98 200.32 137.97 198.90 137.96 198.20 C 135.41 201.08 131.09 202.12 127.57 200.46 C 122.95 198.76 121.90 191.72 125.76 188.70 C 129.26 186.02 133.93 186.66 138.05 186.64 C 137.96 184.32 138.08 181.55 135.98 180.01 C 132.39 178.21 128.26 179.56 124.89 181.22 C 124.88 179.89 125.03 178.58 125.36 177.31 M 127.37 193.15 C 126.47 197.61 132.19 199.18 135.37 197.32 C 138.47 195.97 137.94 192.11 138.01 189.36 C 134.40 189.42 128.53 188.57 127.37 193.15 Z" />
<path fill="#124943" opacity="1.00" d=" M 185.72 176.45 C 187.03 176.40 188.34 176.36 189.65 176.32 C 189.61 184.54 189.62 192.76 189.65 200.98 C 188.37 200.98 187.09 200.98 185.81 200.99 C 185.72 192.81 185.92 184.63 185.72 176.45 Z" />
<path fill="#124943" opacity="1.00" d=" M 203.39 176.57 C 206.50 175.40 209.83 176.15 212.95 176.90 C 212.98 177.78 213.04 179.55 213.08 180.44 C 210.52 179.58 207.77 178.74 205.07 179.45 C 202.99 179.98 201.59 182.96 203.34 184.59 C 206.20 187.32 210.81 187.53 213.29 190.78 C 215.50 193.76 214.44 198.49 211.08 200.15 C 207.27 202.07 202.85 201.13 198.98 199.93 C 198.97 198.71 198.97 197.49 198.98 196.27 C 201.80 197.50 204.93 198.45 208.02 197.78 C 210.13 197.42 211.49 194.71 210.19 192.92 C 207.39 189.41 201.58 189.74 199.49 185.50 C 197.48 182.11 199.80 177.63 203.39 176.57 Z" />
<path fill="#124943" opacity="1.00" d=" M 266.35 176.36 C 267.63 176.36 268.92 176.36 270.20 176.37 C 270.33 182.48 269.90 188.64 270.42 194.73 C 272.19 199.71 280.24 198.33 281.46 193.56 C 282.70 187.94 281.65 182.07 282.04 176.35 C 283.35 176.35 284.65 176.35 285.97 176.36 C 286.07 184.57 285.97 192.77 286.01 200.98 C 284.68 200.99 283.35 200.99 282.02 201.00 C 281.99 199.66 281.97 198.33 281.96 196.99 C 278.84 203.05 268.13 202.65 266.63 195.62 C 266.04 189.22 266.54 182.77 266.35 176.36 Z" />
<path fill="#124943" opacity="1.00" d=" M 297.97 177.97 C 301.31 175.10 306.08 175.86 309.99 176.93 C 310.01 177.81 310.03 179.56 310.04 180.43 C 307.31 179.59 304.22 178.46 301.43 179.72 C 299.69 180.53 298.83 183.14 300.32 184.57 C 303.01 187.19 307.25 187.44 309.84 190.24 C 312.61 193.09 311.66 198.44 308.06 200.15 C 304.28 202.11 299.84 201.11 295.98 199.93 C 295.98 198.69 295.98 197.45 295.99 196.21 C 298.98 197.54 302.41 198.63 305.66 197.57 C 307.37 196.85 307.74 195.01 307.73 193.36 C 305.24 190.50 301.40 189.75 298.34 187.75 C 295.18 185.57 294.83 180.34 297.97 177.97 Z" />
</g>
</svg>
